# xmcd
#
# Track frame offsets: 
#        150
#        11708
#        20778
#        31380
#        42407
#        52687
#        64495
#        74034
#        83449
#        94018
#        105990
#        113676
#        123366
#        133123
#        142088
#        150427
#        160941
#        171347
#        181636
#        189719
#        202021
#        212463
#        222286
#        232267
#        241958
#        253669
#        263354
#        272329
#        282978
#        291327
#
# Disc length: 4005 seconds
#
# Revision: 0
# Processed by: cddbd v1.5.2PL0 Copyright (c) Steve Scherf et al.
# Submitted via: ExactAudioCopy v0.99pb4
#
DISCID=b60fa31e
DTITLE=Various Artist - Cruisin' Country - Echoes From The Mountain
DYEAR=1999
DGENRE=Country
TTITLE0=Curtis Lamar - Mean Eyed Cat
TTITLE1=Paul Bowman - Sally Was A Good Old Girl
TTITLE2=Tommy Overstreet - Little Bit Of Devil
TTITLE3=Jack Reno - Gonna Have To Come And Get It
TTITLE4=Rodger Kaufman - Country Boy
TTITLE5=Bob Morris - I Knew I'd Lose Again
TTITLE6=Gary Bryant - I'm Just A Nobody
TTITLE7=Bruce Mullen - Love And The Auctioneer
TTITLE8=Collegiates - Only You Can Make Me Well
TTITLE9=Pat Zill - Big Man In A Big House
TTITLE10=Perk Williams - One Sweet Touch
TTITLE11=Pat Zill - Pick Me Up On Your Way Down
TTITLE12=Darrell McCall - Dear One
TTITLE13=Johnny Wildcard - Say It Again
TTITLE14=Jimmy Bradshaw - I've Got Girls
TTITLE15=Sammy Duckitt - No Not Once
TTITLE16=Bobby Austin - Look Out Heart
TTITLE17=Herbie Duncan - Night Time
TTITLE18=Garn Littledyke - Like It Or Not
TTITLE19=Don Mayden - Baby You Got It
TTITLE20=Wayne Morris - I Pay And Pay
TTITLE21=Chick Warner - Keep On Keeping On
TTITLE22=Bobby Sykes - Memphis Adress
TTITLE23=Dee Mullins - Love Make The World Go Around
TTITLE24=Ray Frushay - Maybe Maybe This Time
TTITLE25=Calhoun Twins - Look What You've Done To My Heart
TTITLE26=Billy Baker - Once A Bum
TTITLE27=Jimmy Dean - Shark In The Bathtub
TTITLE28=Homer Lee - I've Got Some Crying To Do
TTITLE29=Carmol Taylor - Free As A Breeze
EXTD=
EXTT0=
EXTT1=
EXTT2=
EXTT3=
EXTT4=
EXTT5=
EXTT6=
EXTT7=
EXTT8=
EXTT9=
EXTT10=
EXTT11=
EXTT12=
EXTT13=
EXTT14=
EXTT15=
EXTT16=
EXTT17=
EXTT18=
EXTT19=
EXTT20=
EXTT21=
EXTT22=
EXTT23=
EXTT24=
EXTT25=
EXTT26=
EXTT27=
EXTT28=
EXTT29=
PLAYORDER=
